<svg xmlns="http://www.w3.org/2000/svg" viewBox="0 0 64 64"><path style="stroke:none;stroke-width:1;stroke-dasharray:none;stroke-linecap:butt;stroke-dashoffset:0;stroke-linejoin:miter;stroke-miterlimit:4;fill:#fff;fill-rule:nonzero;opacity:1" transform="matrix(10 0 0 9 -30 -170)" d="M10.38 46.92V23.64l-1.44-.42c-.54-.18-.84-.66-.84-1.2v-5.88c0-.42.48-1.14.9-1.14h16.8c6 0 9.9 2.58 10.62 8.76l.24 1.74.12 2.58v2.58c0 7.8-2.46 12.66-10.56 12.66l-7.68.06v1.02h.78l-.78.54v.96l2.04-1.5h.96l-3 2.22v.3l.6.24 3.72-2.76h.9l-3.84 2.94c.48.18 1.02.6 1.02 1.26v5.82c0 .54-.48 1.2-1.02 1.2H9.06c-.54 0-.96-.66-.96-1.2v-5.88c0-.48.36-.96.84-1.08zM3 20.82l1.92-1.44h.96L3 21.54zm0 1.68 4.08-3.12v.78L3 23.22zm0 1.68 4.08-3.12v.72L3 24.9zm0 2.34v-.66l4.02-3.06c.12.18.18.42.18.66zm15.54-2.58v1.92l1.2-.9h.96l-2.16 1.62v.96l3.42-2.58h1.02l-4.44 3.3v6.18h4.98c.06-.18.06-.48.06-.6l4.08-3.12v.78l-3.9 2.94h1.02c.06 0 .24-.06.24-.06l2.58-1.92v.06c0 .12.06.66-.12.78l-1.38 1.02c1.8.06 2.4-1.02 2.46-2.7.06-.78.12-1.5.12-2.22q0-1.53-.18-3.06c-.24-2.16-1.56-2.4-3.48-2.4zM3.3 27.3l4.26-3.24c.24.12.54.18.66.24l-4.38 3.3c-.18 0-.42-.18-.54-.3m2.04.72-.6-.12 4.38-3.3c.12 0 .24 0 .3.06v.42L5.34 28.2zm14.4.3 4.5-3.36c.3 0 .6 0 .9.06l-4.44 3.3zm2.04.18 4.32-3.3h.06s.18.12.24.12c.12.06.18.12.3.18l-4.32 3.24h-.06c-.12-.12-.42-.18-.54-.24M5.34 29.88v-.78l4.08-3.06v.72zm17.64-.66 4.2-3.12c.06 0 .24.42.24.54l-.06.06-4.14 3.06c-.12-.12-.18-.3-.24-.54m.42 1.38 4.14-3.06s.06.36.06.6c0 .06 0 .06-.06.06l-4.08 3.06s-.06-.42-.06-.66m-18.06.18 4.08-3.06v.66l-4.08 3.06zm18.18 1.38h.06l4.02-3c.06.06.06.36.06.54v.12l-4.08 3.06c-.06-.24-.06-.36-.06-.6zm-18.18.24 4.08-3.06v.72l-4.08 3.06zm0 2.4v-.72l4.08-3.06v.72zm0 1.68v-.72l4.08-3.06v.72zm0 .96 4.08-3.06v.72l-4.08 3.06zm0 2.4v-.72l4.08-3.06v.72zm0 1.68v-.72l4.08-3.12v.78zm0 .96 4.08-3.12v.78L5.34 43.2zm0 1.68 4.08-3.12v.72l-4.08 3.12zm0 2.4v-.78l4.08-3.06v.72zm17.7 1.02 4.62-3.42 1.26-.24-4.62 3.48zm3.12-3.3-4.5 3.42h-1.08l4.44-3.3c.12-.12 1.02-.12 1.14-.12M5.34 47.46l4.08-3.06v.72l-4.08 3.12zm20.94-.66 3-2.22c0 .48-2.52 2.1-3 2.22M5.34 49.14l4.08-3.06v.72l-4.08 3.12zm0 2.22v-.54l1.8-1.32c0 .24 0 .66-.06.66L3 53.22v-.12c0-.18 0-.54.12-.6.12-.12.78-.6 1.02-.78zM3 54.18l4.08-3.06v.72L3 54.96zm0 1.68 4.08-3.06v.72L3 56.58zm0 2.4v-.72l4.08-3.06v.72zm.06.9L7.2 56.1c.18.12.36.24.48.36l-4.26 3.18-.06.06c-.06 0-.3-.42-.3-.54m1.2.84 4.44-3.36h.96L5.22 60zm2.22 0 4.44-3.36h1.02L7.44 60zm2.22 0 4.5-3.36h.96L9.66 60zm3.24 0h-.96l4.44-3.36h.42v.42zm1.26 0 2.64-1.98v.72L14.16 60z"/></svg>
